<svg aria-hidden="true" data-glyph="user" viewBox="0 0 24 24" height="24" width="24" xmlns="http://www.w3.org/2000/svg">
    <path
            d="M2 20.0301C2 18.0301 2.63 17.1301 4.47 16.4001L5.97 15.8001C8.84 14.6701 9.2 14.4301 9.2 13.6701C9.2 11.3701 7.37 11.3701 7.37 7.40008C7.37 4.23008 8.84 1.83008 11.94 1.83008C15.17 1.83008 16.64 4.23008 16.64 7.40008C16.64 11.3701 14.71 11.3701 14.71 13.6701C14.71 14.4401 15.11 14.6401 17.94 15.7701L19.54 16.4001C21.37 17.1301 22.01 18.0301 22.01 20.0301V22.0001H2.01L2 20.0301Z"
            fill="#836EF9"
    />
</svg>
